# xmcd CD database file
#
# Track frame offsets:
#	150
#	14779
#	27164
#	43514
#	59162
#	74912
#	92438
#	108486
#	122667
#	137693
#	152068
#	164313
#	177672
#	188209
#	199787
#	211029
#	229768
#
# Disc length: 3211 seconds
#
# Revision: 0
# Processed by: cddbd v1.5PL3 Copyright (c) Steve Scherf et al.
# Submitted via: CDex 1.51
#
DISCID=f80c8911
DTITLE=Benny Goodman - Le Big Band
DYEAR=1900
DGENRE=Jazz
TTITLE0=Stompin' At The Savoy
TTITLE1=Between The Devil And The Deep Blue Sea
TTITLE2=Love Me Or Leave Me
TTITLE3=Somebody Stol My Gal
TTITLE4=It's The Talk Of The Town
TTITLE5=I Wanna Be Loved
TTITLE6=Who's Sorry Now
TTITLE7=You Made Me So Very Happy
TTITLE8=Windy
TTITLE9=Watch What Happens
TTITLE10=Up, Up And Away
TTITLE11=Spinning Wheel
TTITLE12=Thème D'Amour de Roméo Et Juliette
TTITLE13=I'll Never Fall In Love Again
TTITLE14=Good Morning Starshine
TTITLE15=Aquarius
TTITLE16=Both Sides Now
EXTD=
EXTT0=
EXTT1=
EXTT2=
EXTT3=
EXTT4=
EXTT5=
EXTT6=
EXTT7=
EXTT8=
EXTT9=
EXTT10=
EXTT11=
EXTT12=
EXTT13=
EXTT14=
EXTT15=
EXTT16=
PLAYORDER=
